<?xml version="1.0" encoding="utf-8" ?>
<svg xmlns="http://www.w3.org/2000/svg" xmlns:xlink="http://www.w3.org/1999/xlink" width="64" height="64">
	<path fill="#FEFEFE" d="M0 0L64 0L64 64L0 64L0 0Z"/>
	<path fill="#231F20" d="M46.7827 9.84602L47.5173 10.2046C47.5656 10.3551 47.6903 10.6139 47.6961 10.7627C47.7194 11.3645 47.1892 12.588 47.0274 13.2178C46.7608 14.2556 46.8407 15.2862 46.4887 16.2957C45.8985 16.0042 45.6715 15.9308 45.3294 15.3454C45.2451 13.5347 46.1935 11.5346 46.7827 9.84602Z"/>
	<path fill="#231F20" d="M26.4213 6.14049L26.7943 6.33877C26.9156 7.39414 24.1319 12.6283 23.5733 14.0647L23.1601 13.7448Q23.1024 13.3576 23.0906 12.9663C23.0246 10.4622 24.7653 7.88002 26.4213 6.14049Z"/>
	<defs>
		<linearGradient id="gradient_0" gradientUnits="userSpaceOnUse" x1="28.77252" y1="63.412933" x2="35.022026" y2="49.991398">
			<stop offset="0" stop-color="#040000"/>
			<stop offset="1" stop-color="#21362C"/>
		</linearGradient>
	</defs>
	<path fill="url(#gradient_0)" d="M43.1875 52.5443L43.8072 52.6139C45.3624 53.9563 46.7636 55.3076 48.7516 55.9647L49.3954 55.7646C49.9735 55.7632 50.486 55.2696 50.9289 54.9375C50.4976 55.8728 49.9826 56.8333 49.7397 57.8364C42.6204 57.9247 35.4938 57.782 28.3731 57.7977C24.0957 57.8072 19.495 58.1548 15.2443 57.7586C14.6609 57.7042 14.2018 57.5759 13.7463 57.1827C13.9056 56.7697 14.1569 56.4692 14.4369 56.132C17.8322 56.4246 21.4271 56.2047 24.8426 56.2026Q35.2363 56.2507 45.6269 55.9973C44.4662 54.7119 43.8549 53.9811 42.0804 53.8342C42.5836 53.5592 42.8787 53.0097 43.1875 52.5443Z"/>
	<path fill="#FEFEFE" d="M22.5053 53.288C29.0142 53.6068 35.5634 53.8727 42.0804 53.8342C43.8549 53.9811 44.4662 54.7119 45.6269 55.9973Q35.2363 56.2507 24.8426 56.2026C21.4271 56.2047 17.8322 56.4246 14.4369 56.132C13.842 55.6048 13.1986 55.1026 12.9792 54.3371C13.7831 53.6046 15.3717 53.646 16.4354 53.5273C18.4675 53.507 20.479 53.4458 22.5053 53.288Z"/>
	<path fill="#231F20" d="M16.9187 18.5426C17.1601 16.7809 17.2601 14.4582 18.8187 13.294C19.1428 13.0519 19.495 12.9957 19.8895 12.9747C20.5375 13.1775 20.8918 13.532 21.1987 14.1226C21.9254 15.5208 21.8457 17.0491 21.6993 18.5691C26.6293 18.5529 34.3574 18.0119 38.9121 18.7379C39.1698 16.99 39.1815 14.8216 40.4542 13.4769C41.0313 13.1467 41.578 13.0038 42.2397 13.1808C42.8209 13.3364 43.1879 13.6352 43.4693 14.1618C43.9906 15.1375 43.4254 18.4627 44.1728 18.6917C45.3978 19.0671 47.7298 18.7665 49.0629 18.7778Q51.975 21.5753 54.7992 24.4615C55.1011 27.3245 55.028 30.2456 55.012 33.1213C54.9687 40.9377 54.5419 47.8135 50.9289 54.9375C50.486 55.2696 49.9735 55.7632 49.3954 55.7646L48.7516 55.9647C46.7636 55.3076 45.3624 53.9563 43.8072 52.6139L43.1875 52.5443C42.8787 53.0097 42.5836 53.5592 42.0804 53.8342C35.5634 53.8727 29.0142 53.6068 22.5053 53.288C20.479 53.4458 18.4675 53.507 16.4354 53.5273C15.3717 53.646 13.7831 53.6046 12.9792 54.3371C13.1986 55.1026 13.842 55.6048 14.4369 56.132C14.1569 56.4692 13.9056 56.7697 13.7463 57.1827C12.5406 55.5803 10.7754 54.3563 9.49988 52.7567C8.59297 51.4791 9.13966 38.4489 9.18671 36.4008C9.21804 33.1407 10.1723 21.2537 11.6645 18.9948C13.0915 18.1538 15.3232 18.4918 16.9187 18.5426Z"/>
	<path fill="#FEFEFE" d="M19.3561 14.2822C19.5857 14.3461 19.8266 14.5037 20.0401 14.6131Q20.081 14.7262 20.1116 14.8425C20.7396 17.1485 19.8841 22.3097 18.712 24.3628C18.282 24.1966 18.1256 23.9802 17.8893 23.5954C17.3183 20.3209 18.1784 17.3139 19.3561 14.2822Z"/>
	<path fill="#FEFEFE" d="M41.3165 14.2901L41.8549 14.5183C41.9762 14.6545 42.0809 14.8151 42.1272 14.9932C42.8461 17.7608 41.9811 21.9033 40.6517 24.3436C40.3404 24.2107 40.0716 24.0251 39.9285 23.7077C38.8594 21.3381 40.4539 16.5378 41.3165 14.2901Z"/>
	<path fill="#FEFEFE" d="M48.6394 30.9307C48.9669 29.07 48.3942 22.8046 49.5219 21.9249C51.142 21.9586 52.9425 24.2296 54.0373 25.3156C54.5765 36.3686 54.004 45.5256 49.3954 55.7646L48.7516 55.9647C46.7636 55.3076 45.3624 53.9563 43.8072 52.6139L49.0603 47.4497C48.8669 45.7979 48.8355 44.1326 48.6408 42.4794C48.0994 38.4693 47.8571 34.9378 48.6394 30.9307Z"/>
	<path fill="#231F20" d="M49.7956 31.018Q50.0792 30.9953 50.3637 30.9908C51.0951 30.9822 51.6789 31.2816 52.1933 31.7916C52.8088 32.4019 53.0542 33.1575 53.0565 34.0052C52.8935 34.0089 52.7371 33.9916 52.5806 33.9449C51.6512 33.6673 50.2482 31.8626 49.7956 31.018Z"/>
	<path fill="#FEFEFE" d="M12.0143 19.7521L16.1971 19.7982C16.1773 20.8213 16.0208 22.2609 16.3786 23.2194C16.6871 24.0462 17.2334 24.7234 18.0406 25.0879C18.6723 25.0631 19.0311 25.0598 19.5376 24.6242C21.0318 23.3391 20.9296 21.5526 21.052 19.748C26.7889 19.9161 32.5747 19.7816 38.3167 19.788L38.3073 19.8898C38.1626 21.5243 38.0057 23.203 39.1402 24.5408C39.3488 24.7867 39.8009 25.1332 40.1185 25.1587C40.6622 25.2023 41.0537 25.073 41.4699 24.7158C43.0024 23.4005 42.9252 21.6017 43.0757 19.7429L48.2001 19.8211C48.2944 22.3156 47.9644 24.7936 47.5041 27.2396C46.6733 31.8771 47.1749 37.257 47.2249 41.9879C47.1805 43.3221 47.1781 44.6769 47.0796 46.0072L43.0497 45.9875C43.0581 47.2048 43.4424 51.5338 42.7215 52.3467C40.0793 51.9283 37.0197 52.1985 34.3258 52.199L17.6901 52.2128Q14.6963 52.1464 11.7018 52.1343C11.2893 52.0628 10.96 51.74 10.639 51.4886C9.15301 47.5225 9.91244 40.5997 10.0774 36.2905C10.6764 30.7734 11.5594 25.2805 12.0143 19.7521Z"/>
	<path fill="#231F20" d="M37.2526 37.8264C37.7525 37.8823 38.1345 37.9743 38.5863 38.198C39.197 39.2676 39.0479 40.0025 38.8096 41.175C38.5114 41.1423 38.1587 41.1177 37.8728 41.0219C37.5508 40.9139 37.3187 40.7046 37.1808 40.4034C36.885 39.7574 37.165 38.5339 37.2526 37.8264Z"/>
	<path fill="#231F20" d="M16.4149 44.9227C16.8945 44.9453 17.2414 44.9803 17.6609 45.2256C17.9647 45.7461 18.1947 46.2179 18.068 46.8362C17.9098 47.6078 17.6424 47.862 17.0044 48.2879Q16.768 48.1157 16.5522 47.9183C16.0062 47.4181 15.3616 46.7797 15.3315 46.003C15.616 45.354 15.8319 45.2769 16.4149 44.9227Z"/>
	<path fill="#231F20" d="M16.808 37.8878C16.9544 37.9085 17.1202 37.9344 17.2561 37.9957C17.6591 38.1772 17.8166 38.5945 17.9526 38.9782C18.1622 39.5692 18.102 40.007 17.8273 40.5696C17.613 41.0087 17.17 41.0457 16.7256 41.1989C16.4052 41.0979 15.9591 40.9858 15.6949 40.7745C15.3055 40.463 15.3302 40.2561 15.2724 39.7881C15.603 38.9894 16.1951 38.4733 16.808 37.8878Z"/>
	<path fill="#231F20" d="M23.9533 37.8518C24.0638 37.8898 24.1696 37.9363 24.2688 37.9985C24.8062 38.3353 24.9316 38.9973 25.0638 39.5695C25.0045 39.8888 24.9517 40.3168 24.7582 40.5819C24.3799 41.1004 23.8313 41.0367 23.2384 41.1195L22.4485 40.846C22.0561 40.3989 22.014 40.3621 22.0289 39.7691C22.4866 38.9258 23.206 38.424 23.9533 37.8518Z"/>
	<path fill="#231F20" d="M30.8789 37.8858L31.4981 38.0633C31.8166 38.4289 32.0149 38.7553 32.0831 39.2438C32.1477 39.7069 32.0186 40.2342 31.7317 40.6068C31.3518 41.1002 30.8193 41.0352 30.2365 41.1141C29.9381 41.0239 29.5737 40.9342 29.3546 40.702C29.0317 40.3598 29.0816 40.1931 29.0923 39.7485C29.5096 38.9397 30.1843 38.4466 30.8789 37.8858Z"/>
	<path fill="#231F20" d="M29.0029 45.0923C29.7812 45.0515 31.1422 44.8194 31.75 45.3568C32.1788 46.0992 31.9256 47.3393 31.8566 48.1762C30.9871 48.034 30.2902 47.7839 29.6741 47.1273C29.1067 46.5226 28.972 45.8987 29.0029 45.0923Z"/>
	<path fill="#231F20" d="M21.9839 45.0873C22.765 45.0517 24.1406 44.8196 24.7512 45.3512C25.1845 46.095 24.9283 47.3341 24.8571 48.173C24.0074 48.0402 23.3001 47.7881 22.6948 47.1596C22.1162 46.5587 21.9711 45.8957 21.9839 45.0873Z"/>
	<path fill="#231F20" d="M25.2934 29.2473C23.2334 30.3048 20.2613 32.3579 17.9328 32.5584C17.4915 32.5964 17.4496 32.5816 17.1121 32.2966C17.2414 31.4284 18.0237 30.6364 18.6081 30.0201C21.6099 26.8545 25.2199 24.9465 29.094 23.0729C29.7056 22.7772 30.581 22.1041 31.2336 22.0938C31.3331 22.0922 31.4299 22.0927 31.5291 22.1031C31.9018 22.4505 31.9235 22.4692 31.9419 22.9777C30.9884 24.1005 28.622 24.4639 27.278 25.1095C25.813 25.8132 24.4056 26.8637 23.0502 27.7671C22.3026 28.2654 20.9989 29.0775 20.8218 29.9629C22.0408 29.8237 26.3016 27.6221 27.8978 27.1236C28.4489 26.9515 28.8261 27.2701 29.2929 27.5178C29.0687 28.8 26.519 29.3369 26.2151 30.5101C26.2735 30.529 26.331 30.5436 26.3915 30.5546L26.4253 30.5606C26.8967 30.6462 27.5847 30.2526 28.0178 30.0632C29.7724 28.8285 35.7403 27.2677 37.8699 27.6056L37.8746 27.8955C35.5691 29.9094 31.9133 30.1824 29.8114 32.5143C30.4464 33.0126 30.89 33.1606 31.7133 33.0593C32.3518 32.9808 33.0673 32.8778 33.6764 32.6659C34.8225 32.2775 36.5782 31.8509 37.7259 32.4255C38.2671 32.6965 38.5 32.9305 38.7712 33.464L38.5921 33.8411C37.0174 33.8153 35.3494 33.6891 33.7852 33.8476C31.1567 34.1141 28.4868 35.9401 25.8995 35.8223C25.5517 35.8065 25.533 35.7402 25.3042 35.4894C25.7887 34.1437 27.8481 32.6389 28.9628 31.7413C29.0509 31.5963 29.017 31.3215 29.0165 31.1498L28.5644 31.1741C26.9041 31.9902 25.1171 32.7396 23.5381 33.6968C22.6898 34.1396 21.6681 34.8165 20.6899 34.772C20.528 34.7646 20.4283 34.5916 20.3202 34.4749C20.5588 33.5987 21.6506 32.8084 22.3078 32.2C23.37 31.2818 24.3253 30.2621 25.2934 29.2473Z"/>
</svg>
